<?xml version="1.0" encoding="utf-8"?>
<!-- Generator: Adobe Illustrator 17.1.0, SVG Export Plug-In . SVG Version: 6.00 Build 0)  -->
<!DOCTYPE svg PUBLIC "-//W3C//DTD SVG 1.1//EN" "http://www.w3.org/Graphics/SVG/1.1/DTD/svg11.dtd">
<svg version="1.1" id="Layer_1" xmlns="http://www.w3.org/2000/svg" xmlns:xlink="http://www.w3.org/1999/xlink" x="0px" y="0px"
	 viewBox="0 0 400 400" enable-background="new 0 0 400 400" xml:space="preserve">
<g>
	<g>
		<polygon fill="#34F7DB" points="246.947,90.914 169.066,160.078 130.132,133.815 127.878,47.109 175.856,26.381 		"/>
		<polygon fill="#32EBF9" points="165.782,94.027 122.606,133.223 70.944,91.257 119.612,52.116 		"/>
		<g>
			<path fill="#326CFC" d="M317.654,96.801c3.58,0.024,6.482-2.853,6.509-6.411c0.021-3.598-2.825-6.506-6.402-6.54
				c-3.589-0.018-6.482,2.871-6.525,6.43C311.224,93.844,314.065,96.758,317.654,96.801z"/>
		</g>
		<path fill="#326CFC" d="M113.079,134.002c15.413,10.67,35.741,22.524,58.724,30.597c0.776,0.532,1.677,0.831,2.606,0.898
			c15.465,5.19,32.067,8.614,49.181,8.73c83.258,0.562,149.923-64.469,152.718-67.237c0.956-0.947,1.43-2.218,1.307-3.497
			c-0.122-1.28-0.837-2.456-1.961-3.238l-9.695-6.735l9.805-6.604c1.139-0.767,1.866-1.93,2.013-3.21s-0.309-2.554-1.249-3.513
			c-2.749-2.804-68.333-68.733-151.597-69.295c-17.002-0.116-33.615,3.015-49.316,8.061c-0.941,0.055-1.857,0.348-2.651,0.883
			C120.025,37.686,78,76.922,67.966,86.83C48.051,85.63,32.31,70.489,32.463,52.18c0.076-9.206,4.09-17.829,11.308-24.287
			c7.221-6.457,16.782-9.973,26.917-9.903c2.786,0.021,5.064-2.016,5.083-4.548c0.021-2.532-2.221-4.597-5.009-4.615
			c-12.838-0.092-24.94,4.362-34.083,12.536c-9.136,8.174-14.222,19.091-14.317,30.744c-0.159,19.03,13.241,35.356,31.987,41.429
			c-31.443,16.458-32.604,34.391-32.623,36.612c-0.095,11.647,4.808,22.631,13.816,30.93l0.003,0.003
			c9.005,8.296,21.027,12.915,33.863,12.997c2.789,0.018,5.064-2.019,5.083-4.548c0.021-2.532-2.221-4.597-5.009-4.615
			c-10.135-0.067-19.632-3.714-26.746-10.266l-0.003-0.003c-7.114-6.555-10.99-15.23-10.914-24.43
			c0.116-13.868,24.262-27.46,36.991-33.127C74.753,103.136,90.625,118.457,113.079,134.002z M76.913,91.538
			c6.836-6.622,23.263-21.654,45.485-36.236l39.123,36.826L121.83,128.4C99.532,113.31,83.251,97.888,76.913,91.538z
			 M174.735,28.932l68.41,63.758l-69.421,62.795c-15.795-5.73-30.536-13.477-43.591-21.666l42.034-38.408
			c1.934-1.769,1.961-4.618,0.052-6.411l-41.429-39C143.979,41.974,158.845,34.439,174.735,28.932z M224.854,20.055
			c13.257,0.089,26.119,2.01,38.344,5.144c0.84,0.217,1.68,0.437,2.514,0.663c49.114,13.342,87.559,45.87,99.45,56.784
			l-10.593,7.138c-1.271,0.858-2.028,2.208-2.04,3.647c-0.012,1.439,0.727,2.801,1.982,3.672l10.477,7.276
			c-15.257,13.596-73.511,61.143-141.319,60.685c-13.501-0.092-26.746-2.404-39.443-6.143l69.573-62.945
			c1.958-1.772,1.982-4.646,0.055-6.442L185.3,25.645C198.059,22.089,211.34,19.96,224.854,20.055z"/>
	</g>
	<g>
		<g>
			<path fill="#326CFC" d="M101.737,217.482c0.116-0.814,1.397-0.814,1.632,0l25.297,78.812l24.95-78.812
				c0.232-0.814,1.397-0.814,1.632,0l17.604,82.076c0.116,0.583,0.116,0.814-0.351,0.933l-0.93,0.232
				c-0.351,0.119-0.586-0.113-0.702-0.695l-16.787-77.183l-24.599,78.58c-0.235,0.814-1.4,0.814-1.632,0l-25.069-78.58
				L86.58,300.028c-0.116,0.583-0.351,0.814-0.699,0.695l-0.933-0.232c-0.467-0.119-0.467-0.351-0.351-0.933L101.737,217.482z"/>
			<path fill="#326CFC" d="M217.825,216.9c0.113-0.232,0.345-0.464,0.583-0.464h0.232c0.232,0,0.464,0.232,0.583,0.464
				l35.208,82.777c0.119,0.351,0,0.583-0.351,0.695l-1.046,0.351c-0.351,0.119-0.47-0.113-0.583-0.351l-10.381-24.364h-47.682
				l-10.494,24.364c-0.116,0.238-0.232,0.47-0.583,0.351l-1.049-0.351c-0.348-0.113-0.464-0.345-0.348-0.695L217.825,216.9z
				 M241.136,274.029l-22.616-53.395l-23.199,53.395H241.136z"/>
			<path fill="#326CFC" d="M267.342,219.7c0-0.47,0.351-0.821,0.821-0.821h0.464c0.464,0,0.814,0.351,0.814,0.821v79.977
				c0,0.464-0.351,0.814-0.814,0.814h-0.464c-0.47,0-0.821-0.351-0.821-0.814V219.7z"/>
			<path fill="#326CFC" d="M288.555,219.7c0-0.47,0.351-0.821,0.821-0.821h0.464c0.351,0,0.702,0.351,0.702,0.821v78.693h40.684
				c0.47,0,0.821,0.351,0.821,0.814v0.47c0,0.464-0.351,0.814-0.821,0.814h-41.849c-0.47,0-0.821-0.351-0.821-0.814V219.7z"/>
		</g>
		<g>
			<path fill="#326CFC" d="M83.961,315.186c0-0.439,0.329-0.764,0.764-0.764h22.503c13.657,0,22.942,6.879,22.942,19.333
				c0,8.959-5.463,15.186-13.873,17.698c9.723,1.861,16.276,7.975,16.276,18.901c0,12.235-10.049,20.536-24.361,20.536H84.725
				c-0.435,0-0.764-0.326-0.764-0.764V315.186z M107.448,350.795c12.126,0,20.755-6.334,20.755-17.04
				c0-11.252-8.411-17.366-20.975-17.366h-21.3v34.406H107.448z M108.212,388.923c13.328,0,22.397-7.43,22.397-18.569
				c0-12.129-8.849-17.592-21.084-17.592H85.928v36.161H108.212z"/>
			<path fill="#326CFC" d="M181.833,313.325c21.955,0,39.547,17.479,39.547,39.437s-17.592,39.218-39.547,39.218
				c-21.958,0-39.437-17.26-39.437-39.218S159.875,313.325,181.833,313.325z M181.833,390.013c20.865,0,37.58-16.383,37.58-37.251
				c0-20.862-16.715-37.47-37.58-37.47s-37.47,16.608-37.47,37.47C144.363,373.63,160.968,390.013,181.833,390.013z"/>
			<path fill="#326CFC" d="M228.134,381.931l0.439-0.439c0.332-0.326,0.658-0.213,0.984,0.113c1.422,1.203,9.504,8.407,21.852,8.407
				c11.684,0,22.171-7.756,22.171-17.26c0-11.903-9.504-16.163-23.374-19.878c-13.219-3.609-22.835-7.756-22.835-20.43
				c0-8.852,6.666-19.12,23.819-19.12c10.926,0,18.895,5.576,18.895,5.576c0.332,0.219,0.439,0.545,0.219,0.871l-0.432,0.658
				c-0.219,0.326-0.439,0.439-0.877,0.219c0,0-7.756-5.356-17.805-5.356c-15.844,0-21.852,9.178-21.852,17.153
				c0,11.145,8.633,15.073,21.413,18.462c15.292,4.26,24.796,9.178,24.796,21.845c0,10.487-11.358,19.227-24.138,19.227
				c-13,0-21.852-7.756-23.274-9.065C227.808,382.589,227.808,382.257,228.134,381.931z"/>
			<path fill="#326CFC" d="M287.775,381.931l0.439-0.439c0.332-0.326,0.658-0.213,0.984,0.113c1.422,1.203,9.504,8.407,21.852,8.407
				c11.684,0,22.171-7.756,22.171-17.26c0-11.903-9.504-16.163-23.374-19.878c-13.219-3.609-22.835-7.756-22.835-20.43
				c0-8.852,6.666-19.12,23.819-19.12c10.926,0,18.895,5.576,18.895,5.576c0.332,0.219,0.439,0.545,0.219,0.871l-0.432,0.658
				c-0.219,0.326-0.439,0.439-0.877,0.219c0,0-7.756-5.356-17.805-5.356c-15.844,0-21.852,9.178-21.852,17.153
				c0,11.145,8.633,15.073,21.413,18.462c15.292,4.26,24.796,9.178,24.796,21.845c0,10.487-11.358,19.227-24.138,19.227
				c-13,0-21.852-7.756-23.274-9.065C287.449,382.589,287.449,382.257,287.775,381.931z"/>
		</g>
	</g>
</g>
</svg>
